<svg width="21" height="21" viewBox="0 0 21 21" fill="none" xmlns="http://www.w3.org/2000/svg">
<path d="M10.5 21C13.2848 21 15.9555 19.8938 17.9246 17.9246C19.8938 15.9555 21 13.2848 21 10.5C21 7.71523 19.8938 5.04451 17.9246 3.07538C15.9555 1.10625 13.2848 0 10.5 0C7.71523 0 5.04451 1.10625 3.07538 3.07538C1.10625 5.04451 0 7.71523 0 10.5C0 13.2848 1.10625 15.9555 3.07538 17.9246C5.04451 19.8938 7.71523 21 10.5 21ZM6.54675 8.673C6.50563 8.83851 6.40168 8.98152 6.25694 9.07172C6.1122 9.16191 5.93803 9.19222 5.77133 9.15622C5.60463 9.12022 5.45849 9.02073 5.36387 8.87884C5.26925 8.73695 5.23359 8.5638 5.26444 8.39606V8.3895C5.34569 8.06492 5.48825 7.75886 5.68444 7.48781C5.89717 7.19283 6.17878 6.95432 6.50476 6.79304C6.83074 6.63177 7.19119 6.55263 7.55475 6.5625C8.27925 6.5625 8.86856 6.84469 9.2715 7.29881C9.66263 7.74112 9.84637 8.31206 9.84637 8.85938C9.84637 9.31744 9.75581 9.70988 9.57731 10.0485C9.41381 10.3497 9.18675 10.6117 8.91187 10.8163C8.7099 10.9652 8.49956 11.1023 8.28188 11.2271L8.20837 11.2718C7.98787 11.403 7.80675 11.5172 7.65056 11.6524C7.13344 12.0999 6.79481 12.5737 6.64781 13.125H9.1875C9.36155 13.125 9.52847 13.1941 9.65154 13.3172C9.77461 13.4403 9.84375 13.6072 9.84375 13.7812C9.84375 13.9553 9.77461 14.1222 9.65154 14.2453C9.52847 14.3684 9.36155 14.4375 9.1875 14.4375H5.90625C5.7322 14.4375 5.56528 14.3684 5.44221 14.2453C5.31914 14.1222 5.25 13.9553 5.25 13.7812C5.25 12.4556 5.87344 11.4529 6.78956 10.6601C7.03894 10.4422 7.30931 10.2795 7.53375 10.1443L7.60987 10.0984C7.78158 10.0011 7.94765 9.89414 8.10731 9.77812C8.23313 9.68828 8.33755 9.57175 8.41313 9.43687C8.50067 9.25745 8.54131 9.05876 8.53125 8.85938C8.53499 8.60724 8.44787 8.36219 8.28581 8.169C8.14144 8.00625 7.91437 7.875 7.55081 7.875C7.11769 7.875 6.888 8.06662 6.74494 8.26219C6.659 8.38169 6.59378 8.5148 6.552 8.65594L6.54675 8.673ZM11.8125 6.5625C11.9865 6.5625 12.1535 6.63164 12.2765 6.75471C12.3996 6.87778 12.4688 7.0447 12.4688 7.21875V10.5H14.4375V7.21875C14.4375 7.0447 14.5066 6.87778 14.6297 6.75471C14.7528 6.63164 14.9197 6.5625 15.0938 6.5625C15.2678 6.5625 15.4347 6.63164 15.5578 6.75471C15.6809 6.87778 15.75 7.0447 15.75 7.21875V13.7812C15.75 13.9553 15.6809 14.1222 15.5578 14.2453C15.4347 14.3684 15.2678 14.4375 15.0938 14.4375C14.9197 14.4375 14.7528 14.3684 14.6297 14.2453C14.5066 14.1222 14.4375 13.9553 14.4375 13.7812V11.8125H11.8125C11.6385 11.8125 11.4715 11.7434 11.3485 11.6203C11.2254 11.4972 11.1562 11.3303 11.1562 11.1562V7.21875C11.1562 7.0447 11.2254 6.87778 11.3485 6.75471C11.4715 6.63164 11.6385 6.5625 11.8125 6.5625Z" fill="black"/>
</svg>
