<svg width="22" height="19" viewBox="0 0 22 19" fill="none" xmlns="http://www.w3.org/2000/svg">
<g clip-path="url(#clip0_53_4948)">
<path fill-rule="evenodd" clip-rule="evenodd" d="M18 13C18 14.1046 17.1046 15 16 15H2C0.89543 15 0 14.1046 0 13V2C0 0.89543 0.89543 0 2 0H8.59C8.85234 0.00110462 9.10374 0.105256 9.29 0.29L10.71 1.71C10.8963 1.89474 11.1477 1.9989 11.41 2H16C17.1046 2 18 2.89543 18 4V13ZM8 4.5C8 3.67157 7.32843 3 6.5 3C5.67157 3 5 3.67157 5 4.5C5 5.32843 5.67157 6 6.5 6C7.32843 6 8 5.32843 8 4.5ZM16 12.5C16 12.7761 15.7761 13 15.5 13H2.5C2.22386 13 2 12.7761 2 12.5V12.16C1.99964 12.0501 2.03866 11.9436 2.11 11.86L5 8.19C5.08683 8.08273 5.21274 8.01438 5.35 8C5.50046 7.99826 5.64371 8.06437 5.74 8.18L7.19 9.93C7.28318 10.0441 7.42272 10.1102 7.57 10.11C7.72701 10.1085 7.87456 10.0347 7.97 9.91L10.85 6.19C10.9467 6.06771 11.0941 5.99639 11.25 5.99639C11.4059 5.99639 11.5533 6.06771 11.65 6.19L15.9 11.86C15.9643 11.9469 15.9993 12.0519 16 12.16V12.5ZM20 15V6C21.1046 6 22 6.89543 22 8V15C22 17.2091 20.2091 19 18 19H6C4.89543 19 4 18.1046 4 17H18C19.1046 17 20 16.1046 20 15Z" fill="black"/>
</g>
<defs>
<clipPath id="clip0_53_4948">
<rect width="22" height="19" fill="white"/>
</clipPath>
</defs>
</svg>
