<svg width="18" height="20" viewBox="0 0 18 20" fill="none" xmlns="http://www.w3.org/2000/svg">
<path d="M10.8 0V4.82766C10.8 5.37639 11.0276 5.90265 11.4326 6.29067C11.8377 6.67868 12.3871 6.89666 12.96 6.89666H18V17.2417C18 17.7904 17.7724 18.3166 17.3674 18.7047C16.9623 19.0927 16.4129 19.3106 15.84 19.3106H8.28V15.2471C8.82131 14.386 9.06851 13.3846 8.98713 12.3824C8.90574 11.3803 8.49983 10.4275 7.82602 9.65693C7.1522 8.88636 6.24409 8.33648 5.22837 8.08398C4.21265 7.83148 3.13998 7.88896 2.16 8.24841V2.069C2.16 1.52027 2.38757 0.994008 2.79265 0.605996C3.19773 0.217983 3.74713 0 4.32 0H10.8ZM6.12 16.9306C6.51106 16.744 6.87428 16.5081 7.2 16.2292V19.3451C7.19994 19.4614 7.16758 19.5756 7.10624 19.6759C7.0449 19.7762 6.95678 19.8591 6.85095 19.9161C6.74511 19.973 6.62536 20.0019 6.50399 19.9999C6.38262 19.9979 6.26401 19.9649 6.16032 19.9045L3.96 18.621L1.75968 19.9038C1.65605 19.9642 1.5375 19.9971 1.41619 19.9992C1.29488 20.0013 1.17518 19.9724 1.06937 19.9155C0.963551 19.8587 0.875428 19.7759 0.814034 19.6757C0.75264 19.5754 0.720186 19.4613 0.72 19.3451V16.2292C1.60827 16.992 2.75909 17.4142 3.95208 17.4148H3.96792C4.71473 17.4151 5.45144 17.2494 6.12 16.9306ZM3.96 16.552C2.90974 16.552 1.9025 16.1523 1.15986 15.441C0.417213 14.7296 1.91943e-10 13.7648 1.91943e-10 12.7588C-6.50303e-06 12.1261 0.165239 11.5034 0.480689 10.9474C0.796138 10.3915 1.25177 9.91996 1.80609 9.57579C2.36041 9.23163 2.99581 9.02576 3.65442 8.97693C4.31303 8.9281 4.97393 9.03787 5.57694 9.29623C6.17995 9.5546 6.7059 9.95335 7.1069 10.4562C7.5079 10.959 7.77121 11.5499 7.87284 12.1752C7.97448 12.8004 7.91123 13.44 7.68883 14.0358C7.46643 14.6316 7.09196 15.1647 6.59952 15.5865C5.87428 16.2094 4.9341 16.5533 3.96 16.552ZM12.24 0.080691V4.82766C12.24 5.01057 12.3159 5.18599 12.4509 5.31533C12.5859 5.44467 12.769 5.51733 12.96 5.51733H17.9158C17.8147 5.18036 17.6259 4.87351 17.3671 4.62559L13.171 0.606906C12.9122 0.358756 12.5919 0.177681 12.24 0.080691Z" fill="black"/>
</svg>
